<mxfile host="app.diagrams.net" modified="2020-12-20T07:45:56.000Z" agent="5.0 (Windows NT 6.1; Win64; x64) AppleWebKit/537.36 (KHTML, like Gecko) Chrome/87.0.4280.88 Safari/537.36" etag="Ma7Tp9zhOwYgR-e2VFgM" version="14.1.1" type="github">
  <diagram id="6rmBXtsmWum0iZYCON5A" name="Page-1">
    <mxGraphModel dx="942" dy="582" grid="1" gridSize="10" guides="1" tooltips="1" connect="1" arrows="1" fold="1" page="1" pageScale="1" pageWidth="827" pageHeight="1169" math="0" shadow="0">
      <root>
        <mxCell id="0" />
        <mxCell id="1" parent="0" />
      </root>
    </mxGraphModel>
  </diagram>
</mxfile>
